<svg width="38" height="38" viewBox="0 0 38 38" fill="none" xmlns="http://www.w3.org/2000/svg">
<path fill-rule="evenodd" clip-rule="evenodd" d="M11.8196 1.68784C13.6768 1.60234 14.269 1.58334 19 1.58334C23.731 1.58334 24.3232 1.60393 26.1788 1.68784C28.0345 1.77176 29.3012 2.06784 30.4095 2.49693C31.5701 2.93551 32.623 3.62109 33.4938 4.50776C34.3805 5.37701 35.0645 6.42834 35.5015 7.59051C35.9322 8.69884 36.2267 9.96551 36.3122 11.818C36.3977 13.6784 36.4167 14.2706 36.4167 19C36.4167 23.731 36.3961 24.3232 36.3122 26.1804C36.2282 28.0329 35.9322 29.2996 35.5015 30.4079C35.0645 31.5702 34.3794 32.6233 33.4938 33.4938C32.623 34.3805 31.5701 35.0645 30.4095 35.5015C29.3012 35.9322 28.0345 36.2267 26.182 36.3122C24.3232 36.3977 23.731 36.4167 19 36.4167C14.269 36.4167 13.6768 36.3961 11.8196 36.3122C9.96708 36.2283 8.70042 35.9322 7.59208 35.5015C6.42979 35.0644 5.37672 34.3793 4.50617 33.4938C3.6201 32.6241 2.93441 31.5715 2.49692 30.4095C2.06783 29.3012 1.77333 28.0345 1.68783 26.182C1.60233 24.3216 1.58333 23.7294 1.58333 19C1.58333 14.269 1.60392 13.6768 1.68783 11.8212C1.77175 9.96551 2.06783 8.69884 2.49692 7.59051C2.93506 6.42847 3.62127 5.37592 4.50775 4.50618C5.37706 3.6203 6.42908 2.93463 7.5905 2.49693C8.69883 2.06784 9.9655 1.77334 11.818 1.68784H11.8196ZM26.0379 4.82284C24.2012 4.73893 23.6502 4.72151 19 4.72151C14.3497 4.72151 13.7987 4.73893 11.9621 4.82284C10.2632 4.90043 9.34167 5.18384 8.72733 5.42293C7.91508 5.73959 7.334 6.11484 6.72442 6.72443C6.14657 7.28659 5.70187 7.97096 5.42292 8.72734C5.18383 9.34168 4.90042 10.2632 4.82283 11.9621C4.73892 13.7988 4.7215 14.3498 4.7215 19C4.7215 23.6503 4.73892 24.2013 4.82283 26.0379C4.90042 27.7368 5.18383 28.6583 5.42292 29.2727C5.70158 30.0279 6.1465 30.7135 6.72442 31.2756C7.2865 31.8535 7.97208 32.2984 8.72733 32.5771C9.34167 32.8162 10.2632 33.0996 11.9621 33.1772C13.7987 33.2611 14.3482 33.2785 19 33.2785C23.6518 33.2785 24.2012 33.2611 26.0379 33.1772C27.7368 33.0996 28.6583 32.8162 29.2727 32.5771C30.0849 32.2604 30.666 31.8852 31.2756 31.2756C31.8535 30.7135 32.2984 30.0279 32.5771 29.2727C32.8162 28.6583 33.0996 27.7368 33.1772 26.0379C33.2611 24.2013 33.2785 23.6503 33.2785 19C33.2785 14.3498 33.2611 13.7988 33.1772 11.9621C33.0996 10.2632 32.8162 9.34168 32.5771 8.72734C32.2604 7.91509 31.8852 7.33401 31.2756 6.72443C30.7134 6.14662 30.029 5.70193 29.2727 5.42293C28.6583 5.18384 27.7368 4.90043 26.0379 4.82284ZM16.7754 24.3691C18.0178 24.8863 19.4012 24.9561 20.6893 24.5666C21.9774 24.1771 23.0904 23.3525 23.838 22.2336C24.5857 21.1147 24.9218 19.7709 24.7887 18.4318C24.6557 17.0926 24.0619 15.8412 23.1087 14.8913C22.5011 14.284 21.7664 13.819 20.9575 13.5298C20.1486 13.2406 19.2857 13.1343 18.4308 13.2186C17.5759 13.303 16.7503 13.5758 16.0135 14.0175C15.2767 14.4591 14.647 15.0587 14.1697 15.7729C13.6924 16.4872 13.3795 17.2984 13.2533 18.1481C13.1272 18.9978 13.191 19.865 13.4402 20.6871C13.6894 21.5092 14.1178 22.2658 14.6945 22.9025C15.2712 23.5392 15.9819 24.04 16.7754 24.3691ZM12.6698 12.6698C13.5011 11.8386 14.488 11.1791 15.5741 10.7292C16.6603 10.2794 17.8244 10.0478 19 10.0478C20.1756 10.0478 21.3397 10.2794 22.4259 10.7292C23.512 11.1791 24.4989 11.8386 25.3302 12.6698C26.1615 13.5011 26.8209 14.488 27.2708 15.5741C27.7207 16.6603 27.9522 17.8244 27.9522 19C27.9522 20.1756 27.7207 21.3397 27.2708 22.4259C26.8209 23.512 26.1615 24.4989 25.3302 25.3302C23.6513 27.009 21.3743 27.9522 19 27.9522C16.6257 27.9522 14.3487 27.009 12.6698 25.3302C10.991 23.6513 10.0478 21.3743 10.0478 19C10.0478 16.6257 10.991 14.3487 12.6698 12.6698ZM29.9377 11.381C30.1437 11.1867 30.3086 10.953 30.4226 10.6938C30.5367 10.4346 30.5976 10.1551 30.6017 9.87198C30.6059 9.58882 30.5531 9.30771 30.4467 9.04529C30.3402 8.78287 30.1822 8.54448 29.9819 8.34424C29.7817 8.14399 29.5433 7.98596 29.2809 7.8795C29.0185 7.77303 28.7374 7.7203 28.4542 7.72443C28.171 7.72856 27.8916 7.78946 27.6324 7.90353C27.3732 8.0176 27.1395 8.18251 26.9452 8.38851C26.5672 8.78914 26.3603 9.32128 26.3684 9.87198C26.3764 10.4227 26.5987 10.9486 26.9882 11.338C27.3776 11.7275 27.9035 11.9498 28.4542 11.9578C29.0049 11.9658 29.537 11.7589 29.9377 11.381Z" fill="white"/>
</svg>
