<svg width="24" height="24" viewBox="0 0 24 24" fill="none" xmlns="http://www.w3.org/2000/svg">
<path d="M10.4561 13.544C11.2752 14.3631 12.3862 14.8232 13.5446 14.8232C14.703 14.8232 15.8139 14.3631 16.6331 13.544L19.7211 10.456C20.5272 9.63421 20.9764 8.52739 20.9708 7.3762C20.9653 6.22502 20.5056 5.12255 19.6915 4.30853C18.8775 3.49451 17.7751 3.03475 16.6239 3.02923C15.4727 3.0237 14.3659 3.47285 13.5441 4.27901L12.0001 5.82301M13.5441 10.456C12.7249 9.63725 11.6142 9.1773 10.4561 9.1773C9.2979 9.1773 8.18716 9.63725 7.36805 10.456L4.27905 13.544C3.45993 14.3631 2.99976 15.4741 2.99976 16.6325C2.99976 17.7909 3.45993 18.9019 4.27905 19.721C5.09818 20.5401 6.20914 21.0003 7.36755 21.0003C8.52597 21.0003 9.63693 20.5401 10.4561 19.721L12.0001 18.177L13.5441 10.456Z" stroke="black" stroke-width="2" stroke-linecap="round" stroke-linejoin="round"/>
</svg>
